# xmcd
#
# Track frame offsets:
#	150
#	51514
#	76506
#	122190
#	159248
#	204386
#	229215
#	264601
#	289667
#
# Disc length: 4298 seconds
#
# Revision: 1
# Processed by: cddbd v1.5.2PL0 Copyright (c) Steve Scherf et al.
# Submitted via: audiograbber 1.83.01
#
DISCID=7610c809
DTITLE=Grateful Dead - 78-05-09A Onondaga County War Memorial, Syracuse NY
DYEAR=1900
DGENRE=
TTITLE0=Franklin's Tower
TTITLE1=New Minglewood Blues
TTITLE2=Row Jimmy
TTITLE3=Looks Like Rain
TTITLE4=Friend Of The Devil
TTITLE5=El Paso
TTITLE6=Candyman
TTITLE7=Passenger
TTITLE8=Deal
EXTD=
EXTT0=
EXTT1=
EXTT2=
EXTT3=
EXTT4=
EXTT5=
EXTT6=
EXTT7=
EXTT8=
PLAYORDER=
